<svg xmlns="http://www.w3.org/2000/svg" xmlns:xlink="http://www.w3.org/1999/xlink" width="500" zoomAndPan="magnify" viewBox="0 0 375 374.999991" height="500" preserveAspectRatio="xMidYMid meet" version="1.0"><defs><g/></defs><g fill="#f4a583" fill-opacity="1"><g transform="translate(78.05662, 202.999543)"><g><path d="M 6.765625 -31.40625 L 11.109375 -31.03125 C 11.628906 -31.15625 12.28125 -31.265625 13.0625 -31.359375 C 13.84375 -31.453125 14.695312 -31.5 15.625 -31.5 C 17 -31.5 18.253906 -31.378906 19.390625 -31.140625 C 20.523438 -30.910156 21.503906 -30.53125 22.328125 -30 C 23.148438 -29.46875 23.785156 -28.765625 24.234375 -27.890625 C 24.691406 -27.023438 24.921875 -25.957031 24.921875 -24.6875 C 24.921875 -23.15625 24.691406 -21.804688 24.234375 -20.640625 C 23.785156 -19.472656 23.164062 -18.460938 22.375 -17.609375 C 21.582031 -16.753906 20.625 -16.054688 19.5 -15.515625 C 18.382812 -14.972656 17.171875 -14.5625 15.859375 -14.28125 C 16.234375 -13.0625 16.753906 -11.710938 17.421875 -10.234375 C 18.085938 -8.765625 18.859375 -7.28125 19.734375 -5.78125 C 20.609375 -4.289062 21.535156 -2.828125 22.515625 -1.390625 C 23.492188 0.0351562 24.460938 1.320312 25.421875 2.46875 L 21.046875 4.8125 C 19.578125 2.9375 18.335938 1.238281 17.328125 -0.28125 C 16.316406 -1.800781 15.445312 -3.273438 14.71875 -4.703125 C 13.988281 -6.140625 13.332031 -7.597656 12.75 -9.078125 C 12.175781 -10.554688 11.597656 -12.164062 11.015625 -13.90625 C 10.671875 -13.90625 10.3125 -13.90625 9.9375 -13.90625 C 9.5625 -13.90625 9.171875 -13.921875 8.765625 -13.953125 L 6.109375 0 L 0.703125 0 Z M 14.1875 -27.765625 C 13.65625 -27.765625 13.160156 -27.75 12.703125 -27.71875 C 12.253906 -27.6875 11.832031 -27.640625 11.4375 -27.578125 L 9.515625 -17.6875 L 10.453125 -17.6875 C 13.253906 -17.6875 15.398438 -18.113281 16.890625 -18.96875 C 18.378906 -19.820312 19.125 -21.351562 19.125 -23.5625 C 19.125 -24.800781 18.75 -25.8125 18 -26.59375 C 17.257812 -27.375 15.988281 -27.765625 14.1875 -27.765625 Z M 14.1875 -27.765625 "/></g></g></g><g fill="#f4a583" fill-opacity="1"><g transform="translate(103.992703, 202.999543)"><g><path d="M 9.375 -33.640625 C 10.375 -33.640625 11.101562 -33.363281 11.5625 -32.8125 C 12.03125 -32.269531 12.265625 -31.535156 12.265625 -30.609375 C 12.265625 -29.703125 11.953125 -28.898438 11.328125 -28.203125 C 10.710938 -27.503906 9.875 -27.15625 8.8125 -27.15625 C 7.820312 -27.15625 7.09375 -27.429688 6.625 -27.984375 C 6.15625 -28.546875 5.921875 -29.25 5.921875 -30.09375 C 5.921875 -31.0625 6.222656 -31.894531 6.828125 -32.59375 C 7.441406 -33.289062 8.289062 -33.640625 9.375 -33.640625 Z M 5.96875 0.234375 C 4.570312 0.234375 3.5 -0.117188 2.75 -0.828125 C 2.007812 -1.546875 1.640625 -2.5 1.640625 -3.6875 C 1.640625 -4.125 1.679688 -4.570312 1.765625 -5.03125 L 5.3125 -22.859375 L 10.453125 -22.859375 L 7.09375 -5.5 C 7.0625 -5.34375 7.035156 -5.210938 7.015625 -5.109375 C 7.003906 -5.003906 7 -4.890625 7 -4.765625 C 7 -3.984375 7.265625 -3.59375 7.796875 -3.59375 C 8.316406 -3.59375 8.828125 -3.644531 9.328125 -3.75 C 9.828125 -3.863281 10.109375 -3.9375 10.171875 -3.96875 L 10.171875 -0.609375 C 9.828125 -0.453125 9.4375 -0.3125 9 -0.1875 C 8.625 -0.0625 8.179688 0.0351562 7.671875 0.109375 C 7.160156 0.191406 6.59375 0.234375 5.96875 0.234375 Z M 5.96875 0.234375 "/></g></g></g><g fill="#f4a583" fill-opacity="1"><g transform="translate(116.727515, 202.999543)"><g><path d="M 22.953125 -21.921875 C 22.796875 -21.179688 22.566406 -20.117188 22.265625 -18.734375 C 21.972656 -17.347656 21.6875 -15.890625 21.40625 -14.359375 C 21.132812 -12.835938 20.894531 -11.382812 20.6875 -10 C 20.488281 -8.625 20.390625 -7.5625 20.390625 -6.8125 C 20.390625 -6.03125 20.425781 -5.304688 20.5 -4.640625 C 20.582031 -3.972656 20.671875 -3.316406 20.765625 -2.671875 C 20.859375 -2.035156 20.941406 -1.398438 21.015625 -0.765625 C 21.097656 -0.128906 21.140625 0.546875 21.140625 1.265625 C 21.140625 2.972656 20.90625 4.410156 20.4375 5.578125 C 19.96875 6.742188 19.304688 7.675781 18.453125 8.375 C 17.597656 9.070312 16.554688 9.578125 15.328125 9.890625 C 14.097656 10.203125 12.738281 10.359375 11.25 10.359375 C 10.34375 10.359375 9.4375 10.253906 8.53125 10.046875 C 7.632812 9.847656 6.765625 9.609375 5.921875 9.328125 C 5.085938 9.046875 4.300781 8.742188 3.5625 8.421875 C 2.832031 8.097656 2.203125 7.8125 1.671875 7.5625 L 3.5 3.640625 C 4.09375 3.890625 4.726562 4.160156 5.40625 4.453125 C 6.09375 4.753906 6.789062 5.023438 7.5 5.265625 C 8.21875 5.515625 8.953125 5.722656 9.703125 5.890625 C 10.453125 6.066406 11.179688 6.15625 11.890625 6.15625 C 13.359375 6.15625 14.492188 5.6875 15.296875 4.75 C 16.109375 3.820312 16.515625 2.691406 16.515625 1.359375 C 16.515625 1.078125 16.503906 0.769531 16.484375 0.4375 C 16.472656 0.113281 16.453125 -0.253906 16.421875 -0.671875 C 16.390625 -1.097656 16.363281 -1.585938 16.34375 -2.140625 C 16.332031 -2.703125 16.328125 -3.390625 16.328125 -4.203125 C 16.328125 -4.703125 16.375 -5.273438 16.46875 -5.921875 C 16.5625 -6.578125 16.640625 -7.265625 16.703125 -7.984375 L 15.8125 -6.015625 C 15.28125 -4.804688 14.703125 -3.785156 14.078125 -2.953125 C 13.460938 -2.128906 12.8125 -1.46875 12.125 -0.96875 C 11.445312 -0.476562 10.722656 -0.132812 9.953125 0.0625 C 9.191406 0.269531 8.410156 0.375 7.609375 0.375 C 6.484375 0.375 5.53125 0.15625 4.75 -0.28125 C 3.976562 -0.71875 3.34375 -1.300781 2.84375 -2.03125 C 2.34375 -2.757812 1.976562 -3.582031 1.75 -4.5 C 1.519531 -5.414062 1.40625 -6.359375 1.40625 -7.328125 C 1.40625 -9.535156 1.691406 -11.601562 2.265625 -13.53125 C 2.835938 -15.457031 3.679688 -17.144531 4.796875 -18.59375 C 5.921875 -20.039062 7.289062 -21.175781 8.90625 -22 C 10.53125 -22.820312 12.398438 -23.234375 14.515625 -23.234375 C 15.597656 -23.234375 16.632812 -23.113281 17.625 -22.875 C 18.625 -22.644531 19.5 -22.390625 20.25 -22.109375 Z M 9.28125 -3.453125 C 10.0625 -3.453125 10.851562 -3.894531 11.65625 -4.78125 C 12.46875 -5.664062 13.222656 -6.820312 13.921875 -8.25 C 14.628906 -9.6875 15.257812 -11.289062 15.8125 -13.0625 C 16.375 -14.832031 16.8125 -16.601562 17.125 -18.375 L 17.265625 -19.171875 C 16.796875 -19.328125 16.316406 -19.441406 15.828125 -19.515625 C 15.347656 -19.597656 14.941406 -19.640625 14.609375 -19.640625 C 13.203125 -19.640625 12.007812 -19.242188 11.03125 -18.453125 C 10.050781 -17.660156 9.257812 -16.648438 8.65625 -15.421875 C 8.050781 -14.191406 7.613281 -12.835938 7.34375 -11.359375 C 7.082031 -9.878906 6.953125 -8.472656 6.953125 -7.140625 C 6.953125 -5.765625 7.144531 -4.804688 7.53125 -4.265625 C 7.925781 -3.722656 8.507812 -3.453125 9.28125 -3.453125 Z M 9.28125 -3.453125 "/></g></g></g><g fill="#f4a583" fill-opacity="1"><g transform="translate(141.357476, 202.999543)"><g><path d="M 11.4375 -26.03125 C 11.25 -25.101562 11.035156 -24.171875 10.796875 -23.234375 C 10.566406 -22.296875 10.316406 -21.421875 10.046875 -20.609375 C 9.785156 -19.804688 9.535156 -19.070312 9.296875 -18.40625 C 9.066406 -17.738281 8.890625 -17.21875 8.765625 -16.84375 C 9.671875 -18.988281 10.878906 -20.585938 12.390625 -21.640625 C 13.898438 -22.703125 15.585938 -23.234375 17.453125 -23.234375 C 19.503906 -23.234375 21.003906 -22.71875 21.953125 -21.6875 C 22.898438 -20.664062 23.375 -19.285156 23.375 -17.546875 C 23.375 -16.328125 23.21875 -15.125 22.90625 -13.9375 C 22.59375 -12.757812 22.242188 -11.625 21.859375 -10.53125 C 21.472656 -9.445312 21.125 -8.398438 20.8125 -7.390625 C 20.5 -6.378906 20.34375 -5.410156 20.34375 -4.484375 C 20.34375 -3.859375 20.363281 -3.132812 20.40625 -2.3125 C 20.457031 -1.488281 20.5625 -0.71875 20.71875 0 L 15.53125 0 C 15.4375 -0.53125 15.378906 -1.003906 15.359375 -1.421875 C 15.347656 -1.835938 15.34375 -2.296875 15.34375 -2.796875 C 15.34375 -4.015625 15.484375 -5.210938 15.765625 -6.390625 C 16.046875 -7.578125 16.359375 -8.742188 16.703125 -9.890625 C 17.046875 -11.046875 17.359375 -12.160156 17.640625 -13.234375 C 17.921875 -14.304688 18.0625 -15.351562 18.0625 -16.375 C 18.0625 -17.125 17.878906 -17.753906 17.515625 -18.265625 C 17.160156 -18.773438 16.5 -19.03125 15.53125 -19.03125 C 14.695312 -19.03125 13.875 -18.664062 13.0625 -17.9375 C 12.25 -17.207031 11.492188 -16.273438 10.796875 -15.140625 C 10.097656 -14.003906 9.492188 -12.75 8.984375 -11.375 C 8.472656 -10.007812 8.09375 -8.707031 7.84375 -7.46875 L 6.390625 0 L 1.171875 0 L 7.609375 -32.890625 L 12.875 -33.828125 Z M 11.4375 -26.03125 "/></g></g></g><g fill="#f4a583" fill-opacity="1"><g transform="translate(166.593852, 202.999543)"><g><path d="M 2.328125 -22.859375 L 7 -22.859375 L 9.046875 -28.6875 L 13.484375 -29.671875 L 12.125 -22.859375 L 17.359375 -22.859375 L 16.703125 -19.078125 L 11.390625 -19.078125 L 8.765625 -5.3125 C 8.734375 -5.15625 8.707031 -5.023438 8.6875 -4.921875 C 8.675781 -4.816406 8.671875 -4.71875 8.671875 -4.625 C 8.671875 -4.1875 8.796875 -3.878906 9.046875 -3.703125 C 9.296875 -3.535156 9.765625 -3.453125 10.453125 -3.453125 C 10.890625 -3.453125 11.332031 -3.488281 11.78125 -3.5625 C 12.226562 -3.644531 12.65625 -3.734375 13.0625 -3.828125 C 13.53125 -3.953125 13.984375 -4.09375 14.421875 -4.25 L 14.421875 -0.75 C 13.890625 -0.53125 13.3125 -0.34375 12.6875 -0.1875 C 12.15625 -0.03125 11.523438 0.0976562 10.796875 0.203125 C 10.066406 0.316406 9.296875 0.375 8.484375 0.375 C 6.617188 0.375 5.289062 0.0390625 4.5 -0.625 C 3.707031 -1.300781 3.3125 -2.273438 3.3125 -3.546875 C 3.3125 -3.953125 3.359375 -4.390625 3.453125 -4.859375 L 6.296875 -19.078125 L 2.328125 -19.078125 Z M 2.328125 -22.859375 "/></g></g></g><g fill="#f4a583" fill-opacity="1"><g transform="translate(183.526943, 202.999543)"><g><path d="M 11.984375 -23.421875 C 12.953125 -23.421875 13.789062 -23.300781 14.5 -23.0625 C 15.21875 -22.832031 15.828125 -22.515625 16.328125 -22.109375 C 16.828125 -21.710938 17.222656 -21.238281 17.515625 -20.6875 C 17.816406 -20.144531 18.03125 -19.578125 18.15625 -18.984375 L 14.28125 -17.453125 C 14.15625 -17.734375 14.046875 -18.019531 13.953125 -18.3125 C 13.859375 -18.601562 13.71875 -18.863281 13.53125 -19.09375 C 13.34375 -19.332031 13.097656 -19.519531 12.796875 -19.65625 C 12.503906 -19.800781 12.113281 -19.875 11.625 -19.875 C 10.5625 -19.875 9.800781 -19.578125 9.34375 -18.984375 C 8.894531 -18.398438 8.671875 -17.796875 8.671875 -17.171875 C 8.671875 -16.734375 8.753906 -16.34375 8.921875 -16 C 9.097656 -15.65625 9.3125 -15.34375 9.5625 -15.0625 C 9.8125 -14.789062 10.082031 -14.546875 10.375 -14.328125 C 10.675781 -14.109375 10.953125 -13.9375 11.203125 -13.8125 L 12.546875 -13.0625 C 13.046875 -12.78125 13.535156 -12.472656 14.015625 -12.140625 C 14.503906 -11.816406 14.914062 -11.421875 15.25 -10.953125 C 15.59375 -10.492188 15.875 -9.929688 16.09375 -9.265625 C 16.3125 -8.597656 16.421875 -7.78125 16.421875 -6.8125 C 16.421875 -5.8125 16.222656 -4.867188 15.828125 -3.984375 C 15.441406 -3.097656 14.875 -2.320312 14.125 -1.65625 C 13.382812 -0.988281 12.453125 -0.457031 11.328125 -0.0625 C 10.210938 0.320312 8.910156 0.515625 7.421875 0.515625 C 6.421875 0.515625 5.460938 0.394531 4.546875 0.15625 C 3.628906 -0.0703125 2.8125 -0.328125 2.09375 -0.609375 C 1.289062 -0.953125 0.515625 -1.320312 -0.234375 -1.71875 L 1.8125 -5.40625 C 2.46875 -5.007812 3.140625 -4.65625 3.828125 -4.34375 C 4.390625 -4.0625 5.003906 -3.8125 5.671875 -3.59375 C 6.335938 -3.375 6.96875 -3.265625 7.5625 -3.265625 C 8.738281 -3.265625 9.613281 -3.53125 10.1875 -4.0625 C 10.769531 -4.59375 11.0625 -5.210938 11.0625 -5.921875 C 11.0625 -6.984375 10.769531 -7.785156 10.1875 -8.328125 C 9.613281 -8.867188 8.957031 -9.34375 8.21875 -9.75 L 7.046875 -10.359375 C 6.671875 -10.546875 6.265625 -10.78125 5.828125 -11.0625 C 5.390625 -11.34375 4.976562 -11.707031 4.59375 -12.15625 C 4.207031 -12.601562 3.890625 -13.171875 3.640625 -13.859375 C 3.390625 -14.546875 3.265625 -15.382812 3.265625 -16.375 C 3.265625 -17.375 3.453125 -18.300781 3.828125 -19.15625 C 4.203125 -20.007812 4.753906 -20.753906 5.484375 -21.390625 C 6.210938 -22.023438 7.117188 -22.519531 8.203125 -22.875 C 9.296875 -23.238281 10.554688 -23.421875 11.984375 -23.421875 Z M 11.984375 -23.421875 "/></g></g></g><g fill="#f4a583" fill-opacity="1"><g transform="translate(202.885714, 202.999543)"><g><path d="M 6.765625 -31.21875 L 24.734375 -31.21875 L 23.9375 -27.296875 L 11.390625 -27.296875 L 9.609375 -17.921875 L 19.78125 -17.921875 L 18.9375 -14.046875 L 8.8125 -14.046875 L 6.109375 0 L 0.703125 0 Z M 6.765625 -31.21875 "/></g></g></g><g fill="#f4a583" fill-opacity="1"><g transform="translate(224.670163, 202.999543)"><g><path d="M 10.640625 -0.609375 C 10.234375 -0.453125 9.78125 -0.3125 9.28125 -0.1875 C 8.84375 -0.0625 8.320312 0.0351562 7.71875 0.109375 C 7.113281 0.191406 6.453125 0.234375 5.734375 0.234375 C 4.273438 0.234375 3.1875 -0.117188 2.46875 -0.828125 C 1.757812 -1.546875 1.40625 -2.5 1.40625 -3.6875 C 1.40625 -4.125 1.453125 -4.5625 1.546875 -5 L 7 -32.890625 L 12.265625 -33.828125 L 6.859375 -5.5 C 6.828125 -5.34375 6.800781 -5.210938 6.78125 -5.109375 C 6.769531 -5.003906 6.765625 -4.890625 6.765625 -4.765625 C 6.765625 -3.984375 7.1875 -3.59375 8.03125 -3.59375 C 8.675781 -3.59375 9.253906 -3.644531 9.765625 -3.75 C 10.285156 -3.863281 10.578125 -3.9375 10.640625 -3.96875 Z M 10.640625 -0.609375 "/></g></g></g><g fill="#f4a583" fill-opacity="1"><g transform="translate(237.638205, 202.999543)"><g><path d="M 14.421875 -23.421875 C 15.910156 -23.421875 17.148438 -23.203125 18.140625 -22.765625 C 19.140625 -22.328125 19.941406 -21.742188 20.546875 -21.015625 C 21.160156 -20.285156 21.585938 -19.453125 21.828125 -18.515625 C 22.078125 -17.585938 22.203125 -16.625 22.203125 -15.625 C 22.203125 -13.382812 21.914062 -11.285156 21.34375 -9.328125 C 20.769531 -7.367188 19.9375 -5.65625 18.84375 -4.1875 C 17.757812 -2.726562 16.398438 -1.578125 14.765625 -0.734375 C 13.128906 0.0976562 11.269531 0.515625 9.1875 0.515625 C 7.726562 0.515625 6.5 0.296875 5.5 -0.140625 C 4.507812 -0.578125 3.707031 -1.160156 3.09375 -1.890625 C 2.488281 -2.617188 2.054688 -3.445312 1.796875 -4.375 C 1.535156 -5.3125 1.40625 -6.28125 1.40625 -7.28125 C 1.40625 -9.488281 1.691406 -11.570312 2.265625 -13.53125 C 2.835938 -15.488281 3.675781 -17.195312 4.78125 -18.65625 C 5.882812 -20.125 7.242188 -21.285156 8.859375 -22.140625 C 10.484375 -22.992188 12.335938 -23.421875 14.421875 -23.421875 Z M 13.34375 -19.828125 C 12.3125 -19.828125 11.398438 -19.398438 10.609375 -18.546875 C 9.816406 -17.691406 9.148438 -16.617188 8.609375 -15.328125 C 8.066406 -14.035156 7.65625 -12.640625 7.375 -11.140625 C 7.09375 -9.648438 6.953125 -8.253906 6.953125 -6.953125 C 6.953125 -5.492188 7.242188 -4.484375 7.828125 -3.921875 C 8.421875 -3.359375 9.234375 -3.078125 10.265625 -3.078125 C 11.285156 -3.078125 12.191406 -3.503906 12.984375 -4.359375 C 13.785156 -5.210938 14.457031 -6.285156 15 -7.578125 C 15.539062 -8.867188 15.953125 -10.269531 16.234375 -11.78125 C 16.515625 -13.289062 16.65625 -14.679688 16.65625 -15.953125 C 16.65625 -17.421875 16.359375 -18.429688 15.765625 -18.984375 C 15.179688 -19.546875 14.375 -19.828125 13.34375 -19.828125 Z M 13.34375 -19.828125 "/></g></g></g><g fill="#f4a583" fill-opacity="1"><g transform="translate(261.241901, 202.999543)"><g><path d="M 33.640625 -23.1875 C 33.953125 -22.5 34.171875 -21.726562 34.296875 -20.875 C 34.421875 -20.019531 34.484375 -19.21875 34.484375 -18.46875 C 34.484375 -16.976562 34.328125 -15.460938 34.015625 -13.921875 C 33.703125 -12.390625 33.265625 -10.914062 32.703125 -9.5 C 32.140625 -8.082031 31.445312 -6.765625 30.625 -5.546875 C 29.800781 -4.335938 28.878906 -3.296875 27.859375 -2.421875 C 26.671875 -1.429688 25.453125 -0.71875 24.203125 -0.28125 C 22.960938 0.15625 21.472656 0.375 19.734375 0.375 C 18.492188 0.375 17.472656 0.117188 16.671875 -0.390625 C 15.878906 -0.910156 15.285156 -1.539062 14.890625 -2.28125 C 14.015625 -1.570312 13.0625 -0.953125 12.03125 -0.421875 C 11.007812 0.109375 9.753906 0.375 8.265625 0.375 C 6.296875 0.375 4.773438 -0.0390625 3.703125 -0.875 C 2.628906 -1.71875 2.09375 -3.078125 2.09375 -4.953125 C 2.09375 -5.160156 2.109375 -5.441406 2.140625 -5.796875 C 2.171875 -6.160156 2.207031 -6.53125 2.25 -6.90625 C 2.300781 -7.28125 2.347656 -7.632812 2.390625 -7.96875 C 2.441406 -8.3125 2.484375 -8.59375 2.515625 -8.8125 L 5.21875 -22.859375 L 10.3125 -22.859375 L 7.65625 -8.953125 C 7.625 -8.796875 7.59375 -8.585938 7.5625 -8.328125 C 7.53125 -8.066406 7.5 -7.796875 7.46875 -7.515625 C 7.4375 -7.234375 7.40625 -6.96875 7.375 -6.71875 C 7.34375 -6.46875 7.328125 -6.28125 7.328125 -6.15625 C 7.328125 -5.289062 7.539062 -4.59375 7.96875 -4.0625 C 8.40625 -3.53125 9.046875 -3.265625 9.890625 -3.265625 C 10.953125 -3.265625 11.914062 -3.773438 12.78125 -4.796875 C 13.65625 -5.828125 14.398438 -7.113281 15.015625 -8.65625 C 15.640625 -10.195312 16.113281 -11.875 16.4375 -13.6875 C 16.769531 -15.507812 16.9375 -17.210938 16.9375 -18.796875 C 16.9375 -19.203125 16.910156 -19.765625 16.859375 -20.484375 C 16.816406 -21.203125 16.75 -21.726562 16.65625 -22.0625 L 21.140625 -23.1875 C 21.484375 -22.5 21.710938 -21.726562 21.828125 -20.875 C 21.953125 -20.019531 22.015625 -19.21875 22.015625 -18.46875 C 22.015625 -16.257812 21.710938 -14.085938 21.109375 -11.953125 C 20.503906 -9.828125 19.640625 -7.894531 18.515625 -6.15625 C 18.484375 -5.289062 18.691406 -4.59375 19.140625 -4.0625 C 19.597656 -3.53125 20.234375 -3.265625 21.046875 -3.265625 C 22.097656 -3.265625 23.128906 -3.773438 24.140625 -4.796875 C 25.148438 -5.828125 26.050781 -7.113281 26.84375 -8.65625 C 27.644531 -10.195312 28.273438 -11.875 28.734375 -13.6875 C 29.203125 -15.507812 29.4375 -17.210938 29.4375 -18.796875 C 29.4375 -19.203125 29.410156 -19.765625 29.359375 -20.484375 C 29.316406 -21.203125 29.25 -21.726562 29.15625 -22.0625 Z M 33.640625 -23.1875 "/></g></g></g></svg>